<?xml version="1.0" standalone="no"?>
<!DOCTYPE svg PUBLIC "-//W3C//DTD SVG 20010904//EN"
 "http://www.w3.org/TR/2001/REC-SVG-20010904/DTD/svg10.dtd">
<svg version="1.0" xmlns="http://www.w3.org/2000/svg"
 width="487.000000pt" height="487.000000pt" viewBox="0 0 487.000000 487.000000"
 preserveAspectRatio="xMidYMid meet">
<metadata>
Created by potrace 1.14, written by Peter Selinger 2001-2017
</metadata>
<g transform="translate(0.000000,487.000000) scale(0.100000,-0.100000)"
fill="#000000" stroke="none">
<path d="M1387 4763 c-3 -2 -18 -5 -34 -7 -15 -1 -34 -5 -41 -9 -6 -5 -12 -6
-12 -3 0 2 -28 -3 -62 -13 -35 -9 -70 -17 -78 -16 -8 0 -17 -2 -20 -6 -3 -4
-21 -9 -40 -12 -19 -3 -47 -10 -61 -15 -15 -6 -29 -8 -32 -6 -3 3 -14 1 -26
-5 -11 -6 -32 -13 -48 -15 -15 -2 -35 -6 -43 -9 -8 -4 -27 -8 -42 -11 -15 -3
-32 -7 -36 -10 -5 -3 -28 -8 -52 -11 -24 -3 -49 -10 -55 -15 -7 -5 -14 -8 -17
-5 -3 3 -11 -2 -18 -10 -12 -14 -10 -20 13 -41 14 -13 31 -24 37 -24 5 0 10
-5 10 -11 0 -5 4 -8 9 -5 5 3 11 -1 15 -9 3 -8 11 -15 19 -15 7 0 22 -8 33
-18 10 -10 42 -33 69 -52 28 -19 53 -39 57 -45 4 -5 8 -6 8 -1 0 5 11 -3 24
-17 13 -14 27 -23 30 -20 3 4 6 2 6 -3 0 -5 16 -18 35 -28 19 -11 35 -23 35
-28 0 -4 6 -8 14 -8 8 0 28 -13 45 -29 17 -16 31 -26 31 -23 0 4 7 -2 16 -13
8 -11 17 -18 19 -15 2 3 15 -5 29 -17 15 -13 29 -23 31 -23 6 0 60 -37 81 -55
43 -37 56 -45 64 -40 6 4 10 -1 10 -9 0 -9 6 -16 13 -16 8 0 22 -9 32 -20 10
-11 24 -20 32 -20 7 0 13 -4 13 -10 0 -5 7 -10 15 -10 8 0 15 -3 15 -8 0 -4
18 -18 40 -32 22 -14 40 -29 40 -34 0 -5 3 -7 6 -3 3 3 11 1 18 -4 46 -38 60
-49 68 -50 4 -1 14 -2 21 -3 6 -1 28 14 47 34 20 19 57 54 82 78 26 23 45 42
41 42 -3 0 7 10 23 22 16 13 57 51 91 85 35 34 63 60 63 58 0 -2 15 11 33 28
18 18 32 39 31 47 -2 8 -3 18 -3 21 -1 3 -31 27 -68 54 -38 27 -71 53 -74 58
-3 5 -10 9 -15 9 -5 0 -8 4 -6 9 1 6 -3 9 -11 7 -12 -3 -25 5 -67 44 -10 9
-21 14 -24 11 -3 -3 -8 2 -12 11 -3 9 -12 16 -20 16 -8 0 -14 4 -14 8 0 4 -15
16 -32 27 -33 19 -46 28 -73 53 -8 7 -15 11 -15 7 0 -3 -10 4 -22 15 -13 12
-38 30 -55 41 -18 12 -33 25 -33 30 0 5 -6 9 -14 9 -8 0 -21 6 -28 13 -7 7
-29 24 -48 37 -19 13 -43 32 -53 41 -20 18 -53 30 -60 22z"/>
<path d="M3417 4741 c-17 -8 -36 -20 -42 -27 -5 -6 -26 -22 -45 -35 -19 -13
-41 -29 -47 -35 -7 -7 -29 -22 -50 -35 -21 -13 -43 -28 -50 -34 -22 -18 -37
-29 -103 -75 -36 -24 -72 -50 -80 -57 -62 -49 -150 -113 -150 -108 0 3 -10 -3
-22 -14 -12 -12 -40 -33 -62 -48 -42 -29 -65 -52 -66 -66 0 -4 27 -33 61 -65
33 -31 100 -95 149 -142 48 -47 115 -111 148 -142 l61 -58 48 32 c26 18 57 40
67 50 11 10 28 20 38 24 10 3 18 10 18 15 0 5 6 9 14 9 8 0 16 4 18 8 2 4 39
33 83 63 44 29 82 57 83 62 2 4 10 7 18 7 9 0 13 4 10 8 -3 5 10 15 29 22 19
8 35 17 35 21 0 4 17 18 38 30 20 13 43 29 50 36 7 7 17 13 22 13 5 0 24 14
42 30 18 17 36 30 40 30 4 0 16 7 25 14 43 36 128 96 135 96 6 0 102 69 158
113 8 7 31 23 50 36 19 14 36 26 38 27 8 5 -20 44 -28 39 -5 -3 -12 -1 -15 5
-4 6 -14 10 -23 9 -10 -1 -24 1 -32 4 -15 6 -96 25 -135 32 -11 2 -20 4 -20 5
0 2 -18 6 -64 15 -19 3 -38 8 -43 11 -5 3 -21 7 -36 10 -15 3 -34 7 -42 11 -8
3 -24 7 -35 8 -11 1 -34 5 -50 10 -17 5 -38 9 -47 10 -10 2 -19 3 -20 4 -2 1
-33 10 -71 20 -61 16 -70 16 -100 2z"/>
<path d="M814 4070 c-9 -9 -94 -56 -181 -101 -28 -15 -50 -29 -48 -31 3 -2
-11 -10 -30 -17 -19 -7 -35 -17 -35 -22 0 -5 -3 -8 -7 -7 -8 2 -52 -20 -98
-49 -11 -7 -36 -20 -55 -30 -19 -10 -36 -21 -38 -25 -2 -5 -10 -8 -17 -8 -8 0
-20 -6 -27 -13 -7 -7 -16 -14 -20 -15 -26 -8 -44 -17 -50 -26 -4 -6 -11 -11
-15 -12 -17 -1 -63 -28 -63 -36 0 -5 -4 -7 -9 -4 -5 3 -11 -3 -14 -14 -5 -21
7 -34 33 -35 8 -1 35 -5 60 -10 25 -4 55 -9 67 -11 12 -1 27 -5 33 -9 6 -4 31
-9 56 -11 25 -2 49 -6 53 -8 5 -3 27 -8 51 -11 23 -3 46 -7 50 -10 5 -3 32 -7
60 -10 28 -2 55 -7 59 -10 5 -2 26 -7 47 -10 22 -4 48 -9 58 -12 11 -3 35 -7
53 -9 18 -2 37 -5 41 -8 4 -2 27 -7 52 -11 25 -4 47 -8 50 -10 3 -2 30 -6 60
-10 30 -4 58 -9 61 -11 3 -2 24 -6 46 -8 22 -3 51 -9 64 -14 13 -4 31 -8 39
-7 8 1 23 3 32 3 9 1 24 10 34 20 10 9 21 17 25 17 4 0 19 10 33 22 14 13 27
22 29 20 1 -1 9 4 17 10 42 35 139 103 148 103 6 0 12 4 14 8 2 5 38 32 80 60
42 28 79 55 82 60 5 8 -22 35 -40 39 -13 3 -133 46 -249 88 -55 20 -104 38
-110 39 -19 4 -90 27 -110 36 -25 10 -48 18 -55 17 -3 0 -16 5 -28 12 -13 7
-36 15 -50 17 -15 3 -29 10 -33 15 -3 6 -9 10 -13 9 -4 -1 -17 1 -29 5 -12 4
-26 8 -32 10 -5 2 -35 12 -66 23 -31 11 -61 17 -65 12z"/>
<path d="M3970 4048 c-14 -6 -34 -13 -44 -15 -11 -2 -25 -8 -32 -14 -6 -5 -16
-9 -20 -7 -5 1 -27 -6 -48 -15 -22 -10 -51 -20 -65 -24 -14 -3 -30 -8 -36 -12
-5 -3 -17 -6 -25 -6 -8 -1 -30 -9 -47 -18 -18 -10 -36 -18 -40 -18 -5 -1 -19
-5 -32 -10 -13 -5 -31 -11 -40 -12 -9 -1 -20 -5 -26 -8 -5 -3 -37 -14 -70 -25
-33 -10 -63 -23 -66 -27 -3 -5 -8 -7 -10 -6 -2 2 -50 -12 -106 -31 -102 -33
-129 -54 -99 -76 9 -6 12 -15 8 -19 -4 -5 1 -5 11 -2 9 4 17 2 17 -2 0 -5 20
-22 45 -38 25 -15 45 -31 45 -35 0 -5 6 -8 13 -8 7 0 23 -9 35 -20 12 -11 26
-20 32 -20 5 0 10 -5 10 -12 0 -6 3 -9 6 -6 3 4 14 -1 25 -10 10 -9 28 -24 38
-34 11 -9 22 -14 25 -11 3 3 8 -2 12 -11 3 -9 10 -13 15 -10 5 3 12 -2 15 -10
3 -9 10 -13 15 -10 5 3 9 1 9 -3 0 -5 16 -17 35 -27 19 -11 35 -23 35 -27 0
-4 17 -3 38 3 20 6 48 12 62 13 14 1 35 5 47 9 12 4 37 8 56 10 19 2 39 6 44
9 5 3 31 8 59 11 27 3 63 10 81 15 17 5 33 7 36 5 2 -3 17 0 32 6 15 6 44 12
65 14 21 2 42 6 48 10 5 3 30 8 56 10 26 3 51 8 56 11 6 3 31 8 57 10 27 2 59
7 73 12 14 5 32 9 40 8 8 -1 22 2 31 6 8 4 34 10 57 12 22 3 45 7 49 10 4 3
33 8 63 12 30 4 62 13 70 21 13 13 11 17 -14 39 -27 23 -40 29 -58 26 -5 0 -8
3 -8 7 0 4 -26 21 -57 37 -32 17 -60 32 -63 35 -10 10 -46 31 -80 46 -19 9
-37 19 -40 23 -3 3 -24 15 -47 26 -24 11 -43 24 -43 28 0 5 -4 6 -8 3 -5 -3
-19 4 -30 15 -12 11 -22 17 -22 13 0 -3 -6 -2 -12 4 -7 5 -30 19 -50 31 -21
12 -55 30 -75 42 -21 12 -44 26 -50 31 -7 6 -13 7 -13 3 0 -4 -7 -1 -16 6 -21
17 -44 20 -74 7z"/>
<path d="M2129 3968 c-1 -172 0 -211 9 -217 12 -7 589 -7 597 0 4 5 8 118 6
222 l-1 47 -305 0 -305 0 -1 -52z"/>
<path d="M1900 3481 c0 -166 3 -220 13 -223 6 -3 242 -4 522 -4 l510 1 3 223
2 222 -525 0 -525 0 0 -219z"/>
<path d="M1661 3613 c-7 -3 -22 -13 -32 -22 -33 -30 -49 -42 -49 -36 0 3 -14
-8 -31 -25 -18 -16 -36 -30 -40 -30 -4 0 -20 -11 -34 -25 -14 -14 -25 -23 -25
-21 0 5 -10 -2 -63 -47 -12 -10 -34 -26 -49 -35 -16 -9 -28 -20 -28 -24 0 -4
-7 -8 -15 -8 -8 0 -15 -4 -15 -10 0 -5 -4 -10 -10 -10 -9 0 -35 -19 -65 -47
-8 -7 -18 -13 -23 -13 -6 0 -13 -7 -16 -16 -4 -9 -9 -14 -12 -11 -3 3 -21 -8
-39 -25 -18 -16 -36 -29 -39 -29 -3 1 -14 -7 -25 -16 -28 -27 -64 -53 -72 -53
-8 0 -48 -83 -52 -108 -1 -9 -6 -23 -10 -29 -5 -7 -10 -21 -12 -30 -2 -10 -25
-76 -50 -148 -25 -71 -48 -137 -50 -145 -2 -8 -13 -39 -24 -67 -12 -29 -18
-53 -15 -53 4 0 1 -6 -5 -14 -7 -8 -14 -27 -17 -42 -3 -16 -11 -32 -17 -36 -7
-4 -9 -8 -5 -8 4 0 3 -11 -2 -24 -11 -30 10 -42 43 -24 32 16 81 51 89 63 5 7
8 7 8 0 0 -5 7 -1 16 10 8 11 18 19 22 19 13 -2 52 19 52 28 0 5 4 7 9 3 6 -3
14 3 20 12 6 10 11 14 11 10 0 -7 10 0 44 30 8 7 16 10 18 7 3 -2 11 2 18 11
7 8 19 15 26 15 8 0 14 3 14 8 0 4 21 19 48 35 59 35 76 45 129 80 23 15 46
27 52 27 6 0 11 3 11 8 0 4 17 16 38 27 20 11 41 25 45 32 4 7 13 13 19 13 7
0 28 11 47 23 20 13 81 52 136 87 55 35 103 68 106 73 3 5 9 8 13 7 4 0 33 15
66 35 62 38 71 56 46 90 -8 11 -12 25 -9 32 3 7 0 13 -6 13 -6 0 -10 3 -10 8
1 4 0 10 -1 15 -1 4 -3 10 -4 15 -2 4 -8 21 -15 37 -8 17 -17 39 -22 50 -4 11
-17 43 -29 70 -12 28 -23 55 -24 60 -7 27 -43 113 -61 146 -8 14 -12 29 -8 33
7 7 4 7 -16 -1z"/>
<path d="M3162 3588 c-7 -7 -12 -20 -12 -29 0 -10 -7 -25 -16 -33 -8 -9 -12
-16 -8 -16 3 0 1 -7 -6 -15 -7 -8 -9 -15 -5 -15 4 0 2 -7 -5 -15 -7 -8 -10
-15 -7 -15 3 0 -5 -24 -17 -52 -24 -53 -38 -89 -40 -98 -1 -3 -7 -14 -13 -25
-6 -11 -11 -24 -11 -30 -1 -5 -10 -30 -21 -55 -46 -105 -47 -115 -11 -137 17
-9 30 -21 30 -26 0 -4 4 -6 9 -2 5 3 16 -2 24 -10 9 -8 18 -15 21 -15 8 0 131
-83 138 -94 4 -6 8 -8 8 -4 0 7 59 -29 87 -52 7 -5 15 -10 18 -10 3 0 32 -17
63 -38 31 -21 69 -44 85 -51 15 -8 27 -18 27 -23 0 -4 5 -8 11 -8 6 0 23 -9
39 -20 15 -11 30 -17 34 -13 3 3 6 1 6 -5 0 -6 15 -18 34 -27 18 -9 42 -25 54
-35 11 -10 23 -16 26 -13 3 4 6 2 6 -4 0 -8 43 -35 61 -37 3 -1 12 -8 20 -16
9 -8 33 -24 54 -35 22 -11 48 -28 59 -37 10 -10 23 -15 28 -12 4 3 8 -2 8 -11
0 -9 4 -14 9 -11 5 3 19 -2 32 -13 45 -34 118 -73 133 -69 13 3 12 12 -5 63
-11 33 -23 67 -26 75 -3 8 -5 21 -4 28 1 6 -2 12 -7 12 -5 0 -13 15 -17 33 -9
37 -7 33 -35 112 -12 33 -23 65 -24 70 -2 6 -6 18 -9 28 -10 26 -18 52 -17 52
1 0 -5 13 -14 29 -8 16 -13 33 -10 38 3 4 0 8 -6 8 -6 0 -8 5 -5 10 3 6 3 16
-2 23 -4 6 -8 14 -9 17 -2 12 -28 76 -47 117 -5 12 -14 20 -19 17 -4 -3 -8 -2
-8 3 0 4 -17 19 -38 33 -20 14 -42 29 -49 35 -23 19 -38 30 -103 78 -112 83
-123 92 -136 105 -7 6 -16 12 -19 12 -4 0 -29 18 -55 40 -26 22 -51 40 -55 40
-3 0 -12 6 -19 13 -27 26 -79 62 -88 60 -4 -2 -8 4 -8 12 0 8 -3 14 -7 13 -15
-3 -43 14 -43 27 0 7 -8 15 -17 19 -10 3 -23 8 -28 11 -6 3 -16 0 -23 -7z"/>
<path d="M2150 2096 l0 -1123 303 1 302 1 3 1123 2 1122 -305 0 -305 0 0
-1124z"/>
<path d="M3030 1633 l0 -1028 101 -125 c56 -69 124 -153 152 -187 51 -63 81
-78 89 -46 2 10 4 507 3 1105 0 1071 -1 1088 -20 1102 -11 9 -23 16 -27 16 -5
0 -8 -477 -8 -1060 0 -663 -4 -1060 -10 -1060 -5 0 -13 6 -17 14 -4 7 -27 35
-50 62 -76 89 -153 189 -154 199 0 6 -1 459 -2 1008 -2 976 -2 999 -21 1013
-11 8 -23 14 -28 14 -4 0 -8 -462 -8 -1027z"/>
<path d="M1823 2615 l-22 -15 0 -948 c0 -521 0 -974 0 -1007 l-1 -60 -86 -105
c-111 -135 -140 -170 -145 -170 -2 0 -4 477 -4 1061 0 583 -2 1062 -6 1064 -3
3 -15 -4 -26 -14 -19 -19 -20 -33 -19 -1117 1 -1091 1 -1099 21 -1102 14 -2
34 16 70 60 27 35 52 65 55 68 3 3 32 39 64 80 32 41 75 91 94 111 l34 37 0
1031 c1 568 -1 1034 -4 1036 -2 3 -14 -2 -25 -10z"/>
<path d="M3540 2320 c0 -21 37 -47 350 -245 85 -53 161 -103 167 -109 10 -9 2
-38 -39 -139 -29 -70 -56 -127 -61 -127 -4 0 -76 44 -160 97 -154 98 -192 114
-192 79 0 -12 38 -43 120 -97 66 -44 127 -82 135 -86 8 -3 22 -12 30 -19 30
-25 87 -52 97 -46 11 8 143 324 143 344 0 8 -42 40 -92 72 -51 32 -176 111
-278 177 -102 65 -193 119 -202 119 -11 0 -18 -8 -18 -20z"/>
<path d="M1255 2272 c-51 -34 -361 -234 -493 -317 -4 -3 24 -76 55 -145 17
-36 96 -219 178 -408 134 -310 150 -342 168 -336 11 4 25 11 31 16 6 5 53 36
104 68 84 54 92 62 82 80 -6 11 -13 20 -17 20 -3 0 -44 -25 -92 -55 -48 -30
-92 -55 -98 -55 -7 0 -15 10 -19 22 -4 13 -76 181 -160 375 -85 194 -156 363
-159 376 -6 23 2 28 437 305 63 40 83 58 83 75 0 35 -25 29 -100 -21z"/>
<path d="M1229 1851 c-105 -63 -139 -86 -139 -93 0 -4 27 -70 61 -147 l61
-140 50 32 c27 18 63 44 81 58 27 23 30 29 18 43 -12 15 -19 13 -68 -15 -30
-17 -56 -29 -58 -27 -6 6 -75 169 -75 178 0 4 31 27 70 51 67 42 87 71 57 82
-8 3 -34 -7 -58 -22z"/>
<path d="M3537 1624 c-17 -18 -2 -36 76 -86 45 -29 87 -55 92 -58 6 -3 34 -20
63 -39 57 -36 57 -37 27 -106 -8 -16 -26 -59 -40 -95 -15 -36 -30 -69 -35 -73
-4 -5 -44 15 -89 43 -66 43 -84 50 -96 40 -24 -20 -3 -42 103 -108 102 -64
112 -69 112 -52 0 5 11 33 24 62 46 101 106 254 106 269 -1 14 -290 201 -320
207 -9 2 -19 0 -23 -4z"/>
<path d="M1944 931 c-2 -2 -4 -110 -4 -240 l0 -236 508 0 507 0 2 220 c2 121
1 229 -2 240 -4 20 -11 20 -505 20 -276 0 -503 -2 -506 -4z"/>
<path d="M2139 388 c-6 -81 -2 -221 6 -227 6 -4 147 -6 315 -6 l305 2 3 121 3
122 -316 0 c-245 0 -315 -3 -316 -12z"/>
</g>
</svg>
